<mxfile host="app.diagrams.net" modified="2021-12-01T13:15:02.619Z" agent="5.0 (X11; Linux x86_64) AppleWebKit/537.36 (KHTML, like Gecko) Chrome/96.0.4664.45 Safari/537.36" etag="30xki1cPLe6ijToCogad" version="15.8.8" type="github">
  <diagram id="ogua8pBa752TqJ__3UYp" name="Page-1">
    <mxGraphModel dx="796" dy="400" grid="1" gridSize="10" guides="1" tooltips="1" connect="1" arrows="1" fold="1" page="1" pageScale="1" pageWidth="827" pageHeight="1169" math="0" shadow="0">
      <root>
        <mxCell id="0" />
        <mxCell id="1" parent="0" />
        <mxCell id="ZfXicsejF9cRYwxNi_Eo-7" value="ASIA PACIFIC REGION/ CENTRAL US REGION" style="swimlane;startSize=0;verticalAlign=top;" vertex="1" parent="1">
          <mxGeometry x="310" y="90" width="380" height="350" as="geometry" />
        </mxCell>
        <mxCell id="ZfXicsejF9cRYwxNi_Eo-5" value="S3 BUCKET" style="whiteSpace=wrap;html=1;aspect=fixed;" vertex="1" parent="ZfXicsejF9cRYwxNi_Eo-7">
          <mxGeometry x="40" y="250" width="80" height="80" as="geometry" />
        </mxCell>
        <mxCell id="ZfXicsejF9cRYwxNi_Eo-14" style="edgeStyle=orthogonalEdgeStyle;rounded=0;orthogonalLoop=1;jettySize=auto;html=1;entryX=0.5;entryY=1;entryDx=0;entryDy=0;" edge="1" parent="ZfXicsejF9cRYwxNi_Eo-7" source="ZfXicsejF9cRYwxNi_Eo-6" target="ZfXicsejF9cRYwxNi_Eo-4">
          <mxGeometry relative="1" as="geometry" />
        </mxCell>
        <mxCell id="ZfXicsejF9cRYwxNi_Eo-17" style="edgeStyle=orthogonalEdgeStyle;rounded=0;orthogonalLoop=1;jettySize=auto;html=1;entryX=1;entryY=0.5;entryDx=0;entryDy=0;" edge="1" parent="ZfXicsejF9cRYwxNi_Eo-7" source="ZfXicsejF9cRYwxNi_Eo-6" target="ZfXicsejF9cRYwxNi_Eo-5">
          <mxGeometry relative="1" as="geometry">
            <Array as="points">
              <mxPoint x="170" y="240" />
              <mxPoint x="140" y="240" />
              <mxPoint x="140" y="290" />
            </Array>
          </mxGeometry>
        </mxCell>
        <mxCell id="ZfXicsejF9cRYwxNi_Eo-6" value="WORDPRESS INSTANCE" style="whiteSpace=wrap;html=1;aspect=fixed;" vertex="1" parent="ZfXicsejF9cRYwxNi_Eo-7">
          <mxGeometry x="150" y="140" width="80" height="80" as="geometry" />
        </mxCell>
        <mxCell id="ZfXicsejF9cRYwxNi_Eo-4" value="RDS" style="whiteSpace=wrap;html=1;aspect=fixed;" vertex="1" parent="ZfXicsejF9cRYwxNi_Eo-7">
          <mxGeometry x="260" y="60" width="80" height="80" as="geometry" />
        </mxCell>
        <mxCell id="ZfXicsejF9cRYwxNi_Eo-20" style="edgeStyle=orthogonalEdgeStyle;rounded=0;orthogonalLoop=1;jettySize=auto;html=1;entryX=0.25;entryY=0;entryDx=0;entryDy=0;" edge="1" parent="ZfXicsejF9cRYwxNi_Eo-7" source="ZfXicsejF9cRYwxNi_Eo-18" target="ZfXicsejF9cRYwxNi_Eo-6">
          <mxGeometry relative="1" as="geometry" />
        </mxCell>
        <mxCell id="ZfXicsejF9cRYwxNi_Eo-18" value="LOAD BALANCER" style="whiteSpace=wrap;html=1;aspect=fixed;" vertex="1" parent="ZfXicsejF9cRYwxNi_Eo-7">
          <mxGeometry x="20" y="50" width="80" height="80" as="geometry" />
        </mxCell>
        <mxCell id="ZfXicsejF9cRYwxNi_Eo-8" value="" style="edgeStyle=orthogonalEdgeStyle;rounded=0;orthogonalLoop=1;jettySize=auto;html=1;" edge="1" parent="1" source="ZfXicsejF9cRYwxNi_Eo-1" target="ZfXicsejF9cRYwxNi_Eo-3">
          <mxGeometry relative="1" as="geometry" />
        </mxCell>
        <mxCell id="ZfXicsejF9cRYwxNi_Eo-1" value="USER" style="whiteSpace=wrap;html=1;aspect=fixed;" vertex="1" parent="1">
          <mxGeometry x="100" y="40" width="80" height="80" as="geometry" />
        </mxCell>
        <mxCell id="ZfXicsejF9cRYwxNi_Eo-23" style="edgeStyle=orthogonalEdgeStyle;rounded=0;orthogonalLoop=1;jettySize=auto;html=1;entryX=0;entryY=0.25;entryDx=0;entryDy=0;" edge="1" parent="1" source="ZfXicsejF9cRYwxNi_Eo-2" target="ZfXicsejF9cRYwxNi_Eo-1">
          <mxGeometry relative="1" as="geometry">
            <mxPoint x="10" y="60" as="targetPoint" />
            <Array as="points">
              <mxPoint x="60" y="340" />
              <mxPoint x="60" y="90" />
              <mxPoint x="10" y="90" />
              <mxPoint x="10" y="60" />
            </Array>
          </mxGeometry>
        </mxCell>
        <mxCell id="ZfXicsejF9cRYwxNi_Eo-2" value="CLOUD FRONT" style="whiteSpace=wrap;html=1;aspect=fixed;" vertex="1" parent="1">
          <mxGeometry x="100" y="300" width="80" height="80" as="geometry" />
        </mxCell>
        <mxCell id="ZfXicsejF9cRYwxNi_Eo-9" value="" style="edgeStyle=orthogonalEdgeStyle;rounded=0;orthogonalLoop=1;jettySize=auto;html=1;" edge="1" parent="1" source="ZfXicsejF9cRYwxNi_Eo-3" target="ZfXicsejF9cRYwxNi_Eo-2">
          <mxGeometry relative="1" as="geometry" />
        </mxCell>
        <mxCell id="ZfXicsejF9cRYwxNi_Eo-19" style="edgeStyle=orthogonalEdgeStyle;rounded=0;orthogonalLoop=1;jettySize=auto;html=1;entryX=0;entryY=0.5;entryDx=0;entryDy=0;" edge="1" parent="1" source="ZfXicsejF9cRYwxNi_Eo-3" target="ZfXicsejF9cRYwxNi_Eo-18">
          <mxGeometry relative="1" as="geometry" />
        </mxCell>
        <mxCell id="ZfXicsejF9cRYwxNi_Eo-3" value="ROUTE 53" style="whiteSpace=wrap;html=1;aspect=fixed;" vertex="1" parent="1">
          <mxGeometry x="100" y="170" width="80" height="80" as="geometry" />
        </mxCell>
        <mxCell id="ZfXicsejF9cRYwxNi_Eo-24" style="edgeStyle=orthogonalEdgeStyle;rounded=0;orthogonalLoop=1;jettySize=auto;html=1;entryX=0.5;entryY=1;entryDx=0;entryDy=0;" edge="1" parent="1" source="ZfXicsejF9cRYwxNi_Eo-5" target="ZfXicsejF9cRYwxNi_Eo-2">
          <mxGeometry relative="1" as="geometry" />
        </mxCell>
      </root>
    </mxGraphModel>
  </diagram>
</mxfile>
